<svg xmlns="http://www.w3.org/2000/svg" height="511pt" viewBox="-74 0 511 511.996" width="511pt"><path d="m175.597656 0h15.199219v215.640625h-15.199219zm0 0" fill="#635663"/><path d="m216.453125 260.488281h-67.949219v-48.972656c0-10.53125 8.535156-19.066406 19.0625-19.066406h29.824219c10.53125 0 19.0625 8.535156 19.0625 19.066406zm0 0" fill="#f1eff2"/><path d="m197.402344 192.449219h-29.847656c-.695313 0-1.382813.042969-2.0625.117187 9.550781 1.03125 16.988281 9.125 16.988281 18.960938v48.960937h33.972656v-48.960937c0-10.535156-8.527344-19.078125-19.050781-19.078125zm0 0" fill="#e0dee1"/><path d="m246.894531 311.046875h-128.832031v-35.464844c0-22.6875 18.390625-41.078125 41.078125-41.078125h46.675781c22.6875 0 41.082032 18.390625 41.082032 41.078125v35.464844zm0 0" fill="#c6c2c6"/><path d="m205.84375 234.503906h-38.074219c22.671875 0 41.054688 18.402344 41.054688 41.105469v35.4375h38.070312v-35.4375c0-22.703125-18.378906-41.105469-41.050781-41.105469zm0 0" fill="#a298a1"/><path d="m316.191406 378.113281c0 73.941407-59.863281 133.882813-133.710937 133.882813-73.847657 0-133.714844-59.941406-133.714844-133.882813zm0 0" fill="#ffd779"/><path d="m265.535156 378.113281c0 65.273438-46.652344 119.625-108.394531 131.476563 8.207031 1.574218 16.675781 2.40625 25.339844 2.40625 73.847656 0 133.710937-59.941406 133.710937-133.882813zm0 0" fill="#fcc151"/><path d="m358.371094 426.640625h-351.78125c-3.363282 0-6.09375-2.726563-6.09375-6.089844v-6.136719c0-73.429687 59.527344-132.953124 132.957031-132.953124h98.050781c73.429688 0 132.957032 59.523437 132.957032 132.953124v6.136719c0 3.363281-2.726563 6.089844-6.089844 6.089844zm0 0" fill="#8fccba"/><path d="m231.585938 281.457031h-50.65625c73.386718 0 132.875 59.566407 132.875 133.042969v6.046875c0 3.367187-2.726563 6.09375-6.085938 6.09375h50.65625c3.359375 0 6.085938-2.726563 6.085938-6.09375v-6.046875c0-73.476562-59.488282-133.042969-132.875-133.042969zm0 0" fill="#64bda1"/></svg>
