<svg xmlns="http://www.w3.org/2000/svg" width="48" height="48" viewBox="0 0 48 48" fill="none"><path d="M40.125 40.9688V48H13.4062V40.9688L23.9531 39.7874C46.0104 41.4598 38.5964 40.9688 40.125 40.9688Z" fill="#545A69"></path><path d="M40.125 7.92188V40.9688H13.4062C13.0408 40.4062 7.97827 32.8125 7.78125 32.5312V17.7656C7.78125 16.6124 8.73743 15.6562 9.89062 15.6562C11.0438 15.6562 11.9718 16.5842 12 17.7374V28.3125H14.8125V5.10938C14.8125 3.95618 15.7687 3 16.9219 3C18.0751 3 19.0312 3.95618 19.0312 5.10938V19.875H21.8438V2.10938C21.8438 0.956177 22.7999 0 23.9531 0C23.9692 0 23.9839 0 24 0.00109864C25.1323 0.0263672 26.0625 0.97229 26.0625 2.10938V19.875H28.875V5.10938C28.875 3.95618 29.8312 3 30.9844 3C32.1376 3 33.0938 3.95618 33.0938 5.10938V19.875H35.9062V7.92188C35.9062 6.76868 36.8624 5.8125 38.0156 5.8125C39.1688 5.8125 40.125 6.76868 40.125 7.92188Z" fill="#F6695C"></path><path d="M31.7468 28.3125L27.9218 35.9623L25.953 35.0061L25.3905 34.7249L27.1904 31.125H21.5654L25.3905 23.4749L25.953 23.7561L27.9218 24.7123L26.1218 28.3125H31.7468Z" fill="white"></path></svg>
