<svg xmlns="http://www.w3.org/2000/svg" width="48" height="48" viewBox="0 0 48 48" fill="none"><path d="M38.0625 1.40625H48V4.21875H38.0625V1.40625Z" fill="#D5D5DF"></path><path d="M0 1.40625H9.9375V4.21875H0V1.40625Z" fill="#D5D5DF"></path><path d="M18.375 48H24L25.4062 27.4219L24 11.25C24 5.04675 18.9532 0 12.75 0H8.53125V5.625H12.75C15.8522 5.625 18.375 8.14783 18.375 11.25V48Z" fill="#696E7B"></path><path d="M36.6562 16.875H45.0938V19.6875H36.6562V16.875Z" fill="#696E7B"></path><path d="M11.3438 16.875H8.53125V14.0625H5.71875V16.875H2.90625V19.6875H5.71875V22.5H8.53125V19.6875H11.3438V16.875Z" fill="#E44132"></path><path d="M29.625 48H24V11.25C24 5.04675 29.0468 0 35.25 0H39.4688V5.625H35.25C32.1478 5.625 29.625 8.14783 29.625 11.25V48Z" fill="#545A69"></path></svg>
