<svg xmlns="http://www.w3.org/2000/svg" width="48" height="48" viewBox="0 0 48 48" fill="none"><path d="M0 1.5V46.5H48V1.5H0Z" fill="#696E7B"></path><path d="M5.71875 7.125V29.625H22.5938V28.2188C22.5938 27.431 23.2123 26.8125 24 26.8125C24.7877 26.8125 25.4062 27.431 25.4062 28.2188V29.625H42.2812V7.125H5.71875Z" fill="white"></path><path d="M33.8438 35.25H42.2812V38.0625H33.8438V35.25Z" fill="#F6F6F7"></path><path d="M24 32.4375C21.6654 32.4375 19.7812 34.3217 19.7812 36.6562C19.7812 38.9905 21.6654 40.875 24 40.875C26.3346 40.875 28.2188 38.9905 28.2188 36.6562C28.2188 34.322 26.3346 32.4375 24 32.4375Z" fill="#F6695C"></path><path d="M36.375 18.9375L34.125 20.625C31.7062 17.4188 28.0217 15.5625 24 15.5625C19.9783 15.5625 16.2938 17.4188 13.875 20.625L11.625 18.9375C14.5781 15 19.0781 12.75 24 12.75C28.9219 12.75 33.4219 15 36.375 18.9375Z" fill="#696E7B"></path><path d="M11.3438 32.4375H8.53125V35.25H5.71875V38.0625H8.53125V40.875H11.3438V38.0625H14.1562V35.25H11.3438V32.4375Z" fill="#F6F6F7"></path><path d="M31.7625 16.6033L25.1531 26.1936L23.9999 25.4062L22.8467 24.6185L23.9999 22.9314L29.4561 15L31.7625 16.6033Z" fill="#FF6C6C"></path><path d="M31.7626 16.6033L25.1532 26.1936L24 25.4062V22.9314L29.4562 15L31.7626 16.6033Z" fill="#E44132"></path></svg>
