<svg xmlns="http://www.w3.org/2000/svg" width="48" height="48" viewBox="0 0 48 48" fill="none">
    <path
        d="M36.4255 21.5182L32.0504 25.8933L29.1669 24.9983L27.0787 20.9213L23.439 19.2708L22.1067 15.9496L26.4818 11.5745L32.9652 15.0348L36.4255 21.5182Z"
        fill="#F7695C"></path>
    <path d="M15.1443 16.946L0 32.09L3.97742 36.0677L17.1379 22.9072L27.0765 20.9194L21.765 15.6079L15.1443 16.946Z"
        fill="#E44132"></path>
    <path
        d="M32.392 26.2351L27.0841 20.9272L25.0714 30.8838L11.9321 44.0227L15.9099 48.0001L31.0538 32.8558L32.392 26.2351Z"
        fill="#E44132"></path>
    <path
        d="M47.3439 14.5774L41.7159 20.2057L36.4257 21.5182L26.4819 11.5745L27.7944 6.28418L33.4227 0.65625L45.1364 0L45.574 0.437256L39.8267 6.18494C38.2754 5.42908 36.3264 5.7074 35.0337 7.00012C33.3832 8.65063 33.3828 11.3156 35.0337 12.9664C36.6842 14.6173 39.3491 14.6169 40.9996 12.9664C42.2924 11.6737 42.571 9.72473 41.8152 8.17346L47.5625 2.42615L48.0001 2.86377L47.3439 14.5774Z"
        fill="#696E7B"></path>
    <path
        d="M47.3438 14.5775L41.7158 20.2058L36.4255 21.5183L31.4539 16.5463L35.0336 12.9666C36.6841 14.6171 39.3494 14.6171 40.9999 12.9666C42.2926 11.6738 42.5709 9.72485 41.8151 8.17358L47.5627 2.42627L48 2.86389L47.3438 14.5775Z"
        fill="#696E7B"></path>
</svg>
